<svg width="399" height="264" viewBox="0 0 399 264" fill="none" xmlns="http://www.w3.org/2000/svg">
<path d="M54 206C40 206 29 202.067 21 194.2C13 186.333 9 175.6 9 162H27C27 170.933 29.3333 177.867 34 182.8C38.8 187.6 45.4667 190 54 190C62.5333 190 69.1333 187.6 73.8 182.8C78.6 177.867 81 170.933 81 162V74.4H46V58H99V162C99 175.6 94.9333 186.333 86.8 194.2C78.8 202.067 67.8667 206 54 206Z" fill="white"/>
<path d="M133 162.8C128.6 162.8 124.8 161.967 121.6 160.3C118.4 158.633 115.9 156.233 114.1 153.1C112.367 149.9 111.5 146.133 111.5 141.8V127.2C111.5 122.8 112.367 119.033 114.1 115.9C115.9 112.767 118.4 110.367 121.6 108.7C124.8 107.033 128.6 106.2 133 106.2C137.4 106.2 141.2 107.033 144.4 108.7C147.6 110.367 150.067 112.767 151.8 115.9C153.6 119.033 154.5 122.767 154.5 127.1V141.8C154.5 146.133 153.6 149.9 151.8 153.1C150.067 156.233 147.6 158.633 144.4 160.3C141.2 161.967 137.4 162.8 133 162.8ZM133 154.8C136.933 154.8 140 153.7 142.2 151.5C144.4 149.3 145.5 146.067 145.5 141.8V127.2C145.5 122.933 144.4 119.7 142.2 117.5C140 115.3 136.933 114.2 133 114.2C129.133 114.2 126.067 115.3 123.8 117.5C121.6 119.7 120.5 122.933 120.5 127.2V141.8C120.5 146.067 121.6 149.3 123.8 151.5C126.067 153.7 129.133 154.8 133 154.8ZM179.961 163C175.628 163 171.828 162.133 168.561 160.4C165.361 158.667 162.861 156.233 161.061 153.1C159.328 149.9 158.461 146.2 158.461 142V127C158.461 122.733 159.328 119.033 161.061 115.9C162.861 112.767 165.361 110.333 168.561 108.6C171.828 106.867 175.628 106 179.961 106C184.294 106 188.061 106.867 191.261 108.6C194.528 110.333 197.028 112.767 198.761 115.9C200.561 119.033 201.461 122.733 201.461 127V136.7H167.261V142C167.261 146.333 168.361 149.667 170.561 152C172.761 154.267 175.894 155.4 179.961 155.4C183.428 155.4 186.228 154.8 188.361 153.6C190.494 152.333 191.794 150.467 192.261 148H201.261C200.661 152.6 198.394 156.267 194.461 159C190.594 161.667 185.761 163 179.961 163ZM192.661 130.7V127C192.661 122.667 191.561 119.333 189.361 117C187.228 114.667 184.094 113.5 179.961 113.5C175.894 113.5 172.761 114.667 170.561 117C168.361 119.333 167.261 122.667 167.261 127V129.9H193.361L192.661 130.7ZM208.022 162V107H216.822V117.5H218.922L216.022 124C216.022 118.067 217.289 113.6 219.822 110.6C222.422 107.533 226.255 106 231.322 106C237.122 106 241.722 107.833 245.122 111.5C248.589 115.1 250.322 120 250.322 126.2V129.5H241.322V127C241.322 122.667 240.255 119.367 238.122 117.1C236.055 114.767 233.089 113.6 229.222 113.6C225.422 113.6 222.422 114.767 220.222 117.1C218.089 119.433 217.022 122.733 217.022 127V162H208.022ZM253.083 162V107H262.083V117.5H263.983L262.083 119.6C262.083 115.267 263.383 111.933 265.983 109.6C268.583 107.2 272.183 106 276.783 106C282.316 106 286.716 107.7 289.983 111.1C293.249 114.5 294.883 119.133 294.883 125V162H285.883V126C285.883 122.067 284.816 119.067 282.683 117C280.616 114.867 277.783 113.8 274.183 113.8C270.449 113.8 267.483 114.933 265.283 117.2C263.149 119.467 262.083 122.733 262.083 127V162H253.083ZM316.044 163C310.244 163 305.677 161.533 302.344 158.6C299.01 155.6 297.344 151.567 297.344 146.5C297.344 141.367 299.01 137.333 302.344 134.4C305.677 131.467 310.177 130 315.844 130H332.844V124.5C332.844 121.1 331.81 118.5 329.744 116.7C327.744 114.833 324.877 113.9 321.144 113.9C317.877 113.9 315.144 114.6 312.944 116C310.744 117.333 309.477 119.167 309.144 121.5H300.144C300.744 116.767 302.977 113 306.844 110.2C310.71 107.4 315.544 106 321.344 106C327.677 106 332.677 107.633 336.344 110.9C340.01 114.167 341.844 118.6 341.844 124.2V162H333.044V151.5H331.544L333.044 150C333.044 154 331.477 157.167 328.344 159.5C325.277 161.833 321.177 163 316.044 163ZM318.244 155.9C322.51 155.9 326.01 154.833 328.744 152.7C331.477 150.567 332.844 147.833 332.844 144.5V136.7H316.044C313.044 136.7 310.677 137.533 308.944 139.2C307.21 140.867 306.344 143.133 306.344 146C306.344 149.067 307.377 151.5 309.444 153.3C311.577 155.033 314.51 155.9 318.244 155.9ZM375.305 162C372.105 162 369.305 161.367 366.905 160.1C364.505 158.833 362.638 157.033 361.305 154.7C359.971 152.367 359.305 149.633 359.305 146.5V97.2H340.805V89H368.305V146.5C368.305 148.767 368.938 150.567 370.205 151.9C371.471 153.167 373.171 153.8 375.305 153.8H392.805V162H375.305Z" fill="white"/>
<path d="M19.4 146C17.5067 146 16.0267 145.493 14.96 144.48C13.92 143.467 13.4 142.04 13.4 140.2V127.28H7.2V124H13.4V117.8H17V124H25.8V127.28H17V140.2C17 141.88 17.8 142.72 19.4 142.72H25.4V146H19.4ZM32.6644 146V116.8H36.2644V124V128.2H37.0244L36.2644 129.04C36.2644 127.307 36.7844 125.973 37.8244 125.04C38.8644 124.08 40.3044 123.6 42.1444 123.6C44.3577 123.6 46.1177 124.28 47.4244 125.64C48.731 127 49.3844 128.853 49.3844 131.2V146H45.7844V131.6C45.7844 130.027 45.3577 128.813 44.5044 127.96C43.6777 127.08 42.5444 126.64 41.1044 126.64C39.611 126.64 38.4244 127.107 37.5444 128.04C36.691 128.973 36.2644 130.293 36.2644 132V146H32.6644ZM64.9688 146.4C63.2354 146.4 61.7154 146.053 60.4088 145.36C59.1288 144.667 58.1288 143.693 57.4088 142.44C56.7154 141.16 56.3688 139.68 56.3688 138V132C56.3688 130.293 56.7154 128.813 57.4088 127.56C58.1288 126.307 59.1288 125.333 60.4088 124.64C61.7154 123.947 63.2354 123.6 64.9688 123.6C66.7021 123.6 68.2088 123.947 69.4888 124.64C70.7954 125.333 71.7954 126.307 72.4888 127.56C73.2088 128.813 73.5688 130.293 73.5688 132V135.88H59.8888V138C59.8888 139.733 60.3288 141.067 61.2088 142C62.0888 142.907 63.3421 143.36 64.9688 143.36C66.3554 143.36 67.4754 143.12 68.3288 142.64C69.1821 142.133 69.7021 141.387 69.8888 140.4H73.4888C73.2488 142.24 72.3421 143.707 70.7688 144.8C69.2221 145.867 67.2888 146.4 64.9688 146.4ZM70.0488 133.48V132C70.0488 130.267 69.6088 128.933 68.7288 128C67.8754 127.067 66.6221 126.6 64.9688 126.6C63.3421 126.6 62.0888 127.067 61.2088 128C60.3288 128.933 59.8888 130.267 59.8888 132V133.16H70.3288L70.0488 133.48Z" fill="white"/>
<path d="M113 175.141C181.55 173.799 250.092 174.012 318.655 174.012C342.148 174.012 365.641 174.012 389.133 174.012C392.669 174.012 402.928 173.784 395.164 179.279C392.155 181.409 369.177 187.757 368.844 189.751C368.816 189.918 385.462 192.082 387.186 192.635C392.806 194.438 379.136 201.293 378.518 201.601C373.259 204.226 367.476 207.57 361.746 209" stroke="white" stroke-width="2" stroke-linecap="round"/>
</svg>
